<svg width="19" height="19" viewBox="0 0 29 29" fill="none" xmlns="http://www.w3.org/2000/svg">
<g clip-path="url(#clip0_1_562)">
<path d="M25.3804 24.1832C27.6308 21.6247 28.9999 18.2461 28.9999 14.5413C28.9999 6.55597 22.642 0.0825195 14.7992 0.0825195C6.95648 0.0825195 0.598633 6.55597 0.598633 14.5413C0.598633 21.9836 6.12133 28.1116 13.2214 28.9108V29.0001H25.2786C26.5857 29.0001 27.6454 27.9213 27.6454 26.5903C27.6454 25.2943 26.6403 24.2376 25.3804 24.1832ZM8.48786 16.1479C7.61642 16.1479 6.91002 15.4286 6.91002 14.5413C6.91002 13.654 7.61642 12.9348 8.48786 12.9348C9.35931 12.9348 10.0657 13.654 10.0657 14.5413C10.0657 15.4286 9.35931 16.1479 8.48786 16.1479ZM14.7992 16.1479C13.9278 16.1479 13.2214 15.4286 13.2214 14.5413C13.2214 13.654 13.9278 12.9348 14.7992 12.9348C15.6707 12.9348 16.3771 13.654 16.3771 14.5413C16.3771 15.4286 15.6707 16.1479 14.7992 16.1479ZM21.1106 16.1479C20.2392 16.1479 19.5328 15.4286 19.5328 14.5413C19.5328 13.654 20.2392 12.9348 21.1106 12.9348C21.9821 12.9348 22.6885 13.654 22.6885 14.5413C22.6885 15.4286 21.9821 16.1479 21.1106 16.1479Z" fill="white"/>
</g>
<defs>
<clipPath id="clip0_1_562">
<rect width="29" height="29" fill="white"/>
</clipPath>
</defs>
</svg>
