<svg width="1520" height="646" viewBox="0 0 1920 646" fill="none" xmlns="http://www.w3.org/2000/svg">
<g clip-path="url(#clip0_1_592)">
<path d="M1960 646H0V42H1960" fill="url(#paint0_linear_1_592)"/>
<g filter="url(#filter0_d_1_592)">
<path d="M943.094 187.044C949.602 187.044 954.863 181.775 954.863 175.29C954.863 168.79 949.587 163.536 943.094 163.536H931.295V152.082C931.295 145.748 926.425 140.298 920.097 140.013C913.333 139.698 907.757 145.072 907.757 151.752V187.119L943.109 187.044H943.094Z" fill="url(#paint1_linear_1_592)"/>
</g>
<g filter="url(#filter1_d_1_592)">
<path d="M896.138 163.956C889.63 163.956 884.369 169.225 884.369 175.71C884.369 182.21 889.645 187.464 896.138 187.464H907.937V198.918C907.937 205.252 912.807 210.702 919.135 210.987C925.899 211.302 931.475 205.928 931.475 199.248V163.881L896.123 163.956H896.138Z" fill="url(#paint2_linear_1_592)"/>
</g>
<path opacity="0.15" d="M742.838 420.045H722.147C721.09 419.589 720.738 418.803 720.738 417.664C720.779 412.135 720.738 406.586 720.738 401.058V400.271H719.929C714.352 400.271 708.755 400.271 703.178 400.271C701.602 400.271 700.939 399.609 700.939 398.035C700.939 391.782 700.98 385.529 700.918 379.276C700.918 377.661 701.665 376.792 703.344 376.813C708.879 376.875 714.435 376.833 719.971 376.833H720.738V376.005C720.738 370.477 720.738 364.928 720.738 359.4C720.738 357.681 721.36 357.06 723.06 357.06C729.341 357.06 735.623 357.06 741.905 357.06C743.563 357.06 744.206 357.702 744.206 359.358C744.206 364.928 744.206 370.518 744.206 376.088V376.833H745.056C750.571 376.833 756.106 376.854 761.621 376.833C762.761 376.833 763.569 377.164 764.005 378.241V398.926C763.549 399.982 762.761 400.334 761.621 400.334C756.085 400.292 750.55 400.334 744.994 400.334H744.206V401.12C744.206 406.649 744.206 412.198 744.206 417.726C744.206 418.865 743.874 419.672 742.796 420.107L742.838 420.045Z" fill="white"/>
<path opacity="0.15" d="M329.611 122H344.849C345.637 122.331 345.885 122.932 345.885 123.76C345.865 127.839 345.885 131.918 345.885 135.997V136.576H346.487C350.591 136.576 354.717 136.576 358.822 136.576C359.983 136.576 360.481 137.073 360.481 138.233C360.481 142.85 360.46 147.447 360.481 152.043C360.481 153.223 359.921 153.865 358.698 153.865C354.613 153.824 350.529 153.865 346.445 153.865H345.885V154.466C345.885 158.545 345.885 162.623 345.885 166.702C345.885 167.965 345.429 168.421 344.185 168.421C339.562 168.421 334.939 168.421 330.295 168.421C329.072 168.421 328.595 167.945 328.595 166.723C328.595 162.623 328.595 158.503 328.595 154.404V153.865H327.973C323.91 153.865 319.846 153.865 315.762 153.865C314.933 153.865 314.332 153.617 314 152.83V137.612C314.332 136.825 314.912 136.576 315.762 136.576C319.846 136.597 323.93 136.576 327.994 136.576H328.574V135.997C328.574 131.918 328.574 127.839 328.574 123.76C328.574 122.932 328.823 122.331 329.611 122Z" fill="white"/>
<path opacity="0.25" d="M145.541 331.55H116.144C114.63 330.908 114.133 329.769 114.154 328.154C114.216 320.286 114.174 312.418 114.174 304.55V303.432H113.034C105.094 303.432 97.1744 303.432 89.2341 303.432C86.9951 303.432 86.0415 302.48 86.0415 300.244C86.0415 291.361 86.0829 282.479 86 273.596C86 271.298 87.0573 270.076 89.4622 270.097C97.3402 270.18 105.218 270.118 113.076 270.118H114.154V268.937C114.154 261.069 114.154 253.201 114.154 245.334C114.154 242.911 115.045 242 117.45 242C126.365 242 135.3 242 144.215 242C146.578 242 147.49 242.911 147.49 245.271C147.49 253.201 147.49 261.111 147.49 269.041V270.097H148.693C156.529 270.097 164.387 270.118 172.223 270.076C173.84 270.076 174.98 270.552 175.623 272.064V301.444C174.98 302.956 173.84 303.453 172.223 303.432C164.345 303.37 156.488 303.411 148.61 303.411H147.49V304.529C147.49 312.397 147.47 320.245 147.511 328.113C147.511 329.728 147.034 330.866 145.521 331.508L145.541 331.55Z" fill="white"/>
<path opacity="0.25" d="M208.799 567.985H226.186C227.084 567.603 227.378 566.927 227.363 565.971C227.334 561.311 227.363 556.665 227.363 552.004V551.343H228.04C232.732 551.343 237.425 551.343 242.102 551.343C243.426 551.343 243.985 550.784 243.985 549.461C243.985 544.198 243.956 538.949 244 533.686C244 532.333 243.367 531.598 241.955 531.613C237.307 531.657 232.644 531.628 227.996 531.628H227.348V530.937C227.348 526.276 227.348 521.631 227.348 516.97C227.348 515.529 226.819 515 225.392 515C220.111 515 214.845 515 209.564 515C208.167 515 207.637 515.544 207.637 516.941C207.637 521.631 207.637 526.32 207.637 531.01V531.642H206.931C202.297 531.642 197.649 531.657 193.015 531.642C192.059 531.642 191.382 531.922 191 532.819V550.196C191.382 551.093 192.059 551.387 193.001 551.372C197.649 551.343 202.312 551.372 206.96 551.372H207.622V552.034C207.622 556.68 207.637 561.34 207.622 565.986C207.622 566.941 207.902 567.618 208.799 568V567.985Z" fill="white"/>
<path d="M568.298 138.89H566.577V137.171C566.577 136.405 565.955 135.805 565.209 135.805C564.441 135.805 563.84 136.426 563.84 137.171V138.89H562.12C561.352 138.89 560.751 139.511 560.751 140.257C560.751 141.023 561.373 141.623 562.12 141.623H563.84V143.342C563.84 144.108 564.462 144.708 565.209 144.708C565.976 144.708 566.577 144.087 566.577 143.342V141.623H568.298C569.065 141.623 569.666 141.002 569.666 140.257C569.666 139.49 569.044 138.89 568.298 138.89Z" fill="white"/>
<path d="M587.537 138.89H585.816V137.171C585.816 136.405 585.194 135.805 584.448 135.805C583.68 135.805 583.079 136.426 583.079 137.171V138.89H581.359C580.591 138.89 579.99 139.511 579.99 140.257C579.99 141.023 580.612 141.623 581.359 141.623H583.079V143.342C583.079 144.108 583.701 144.708 584.448 144.708C585.215 144.708 585.816 144.087 585.816 143.342V141.623H587.537C588.304 141.623 588.905 141.002 588.905 140.257C588.905 139.49 588.283 138.89 587.537 138.89Z" fill="white"/>
<path d="M606.755 138.89H605.034V137.171C605.034 136.405 604.412 135.805 603.666 135.805C602.899 135.805 602.298 136.426 602.298 137.171V138.89H600.577C599.81 138.89 599.208 139.511 599.208 140.257C599.208 141.023 599.83 141.623 600.577 141.623H602.298V143.342C602.298 144.108 602.919 144.708 603.666 144.708C604.433 144.708 605.034 144.087 605.034 143.342V141.623H606.755C607.522 141.623 608.123 141.002 608.123 140.257C608.123 139.49 607.501 138.89 606.755 138.89Z" fill="white"/>
<path d="M625.973 138.89H624.252V137.171C624.252 136.405 623.63 135.805 622.884 135.805C622.117 135.805 621.516 136.426 621.516 137.171V138.89H619.795C619.028 138.89 618.427 139.511 618.427 140.257C618.427 141.023 619.049 141.623 619.795 141.623H621.516V143.342C621.516 144.108 622.138 144.708 622.884 144.708C623.651 144.708 624.252 144.087 624.252 143.342V141.623H625.973C626.74 141.623 627.341 141.002 627.341 140.257C627.341 139.49 626.719 138.89 625.973 138.89Z" fill="white"/>
<path d="M645.212 138.89H643.491V137.171C643.491 136.405 642.869 135.805 642.123 135.805C641.356 135.805 640.755 136.426 640.755 137.171V138.89H639.034C638.267 138.89 637.666 139.511 637.666 140.257C637.666 141.023 638.288 141.623 639.034 141.623H640.755V143.342C640.755 144.108 641.377 144.708 642.123 144.708C642.89 144.708 643.491 144.087 643.491 143.342V141.623H645.212C645.979 141.623 646.58 141.002 646.58 140.257C646.58 139.49 645.958 138.89 645.212 138.89Z" fill="white"/>
<path d="M568.298 157.773H566.577V156.055C566.577 155.288 565.955 154.688 565.209 154.688C564.441 154.688 563.84 155.309 563.84 156.055V157.773H562.12C561.352 157.773 560.751 158.394 560.751 159.14C560.751 159.906 561.373 160.506 562.12 160.506H563.84V162.225C563.84 162.991 564.462 163.591 565.209 163.591C565.976 163.591 566.577 162.97 566.577 162.225V160.506H568.298C569.065 160.506 569.666 159.885 569.666 159.14C569.666 158.374 569.044 157.773 568.298 157.773Z" fill="white"/>
<path d="M587.537 157.773H585.816V156.055C585.816 155.288 585.194 154.688 584.448 154.688C583.68 154.688 583.079 155.309 583.079 156.055V157.773H581.359C580.591 157.773 579.99 158.394 579.99 159.14C579.99 159.906 580.612 160.506 581.359 160.506H583.079V162.225C583.079 162.991 583.701 163.591 584.448 163.591C585.215 163.591 585.816 162.97 585.816 162.225V160.506H587.537C588.304 160.506 588.905 159.885 588.905 159.14C588.905 158.374 588.283 157.773 587.537 157.773Z" fill="white"/>
<path d="M606.755 157.773H605.034V156.055C605.034 155.288 604.412 154.688 603.666 154.688C602.899 154.688 602.298 155.309 602.298 156.055V157.773H600.577C599.81 157.773 599.208 158.394 599.208 159.14C599.208 159.906 599.83 160.506 600.577 160.506H602.298V162.225C602.298 162.991 602.919 163.591 603.666 163.591C604.433 163.591 605.034 162.97 605.034 162.225V160.506H606.755C607.522 160.506 608.123 159.885 608.123 159.14C608.123 158.374 607.501 157.773 606.755 157.773Z" fill="white"/>
<path d="M625.973 157.773H624.252V156.055C624.252 155.288 623.63 154.688 622.884 154.688C622.117 154.688 621.516 155.309 621.516 156.055V157.773H619.795C619.028 157.773 618.427 158.394 618.427 159.14C618.427 159.906 619.049 160.506 619.795 160.506H621.516V162.225C621.516 162.991 622.138 163.591 622.884 163.591C623.651 163.591 624.252 162.97 624.252 162.225V160.506H625.973C626.74 160.506 627.341 159.885 627.341 159.14C627.341 158.374 626.719 157.773 625.973 157.773Z" fill="white"/>
<path d="M645.212 157.773H643.491V156.055C643.491 155.288 642.869 154.688 642.123 154.688C641.356 154.688 640.755 155.309 640.755 156.055V157.773H639.034C638.267 157.773 637.666 158.394 637.666 159.14C637.666 159.906 638.288 160.506 639.034 160.506H640.755V162.225C640.755 162.991 641.377 163.591 642.123 163.591C642.89 163.591 643.491 162.97 643.491 162.225V160.506H645.212C645.979 160.506 646.58 159.885 646.58 159.14C646.58 158.374 645.958 157.773 645.212 157.773Z" fill="white"/>
<path d="M761.164 462.408H759.444V460.689C759.444 459.923 758.822 459.323 758.075 459.323C757.308 459.323 756.707 459.944 756.707 460.689V462.408H754.986C754.219 462.408 753.618 463.029 753.618 463.774C753.618 464.54 754.24 465.141 754.986 465.141H756.707V466.859C756.707 467.625 757.329 468.226 758.075 468.226C758.843 468.226 759.444 467.605 759.444 466.859V465.141H761.164C761.932 465.141 762.533 464.52 762.533 463.774C762.533 463.008 761.911 462.408 761.164 462.408Z" fill="white"/>
<path d="M780.383 462.408H778.662V460.689C778.662 459.923 778.04 459.323 777.294 459.323C776.527 459.323 775.925 459.944 775.925 460.689V462.408H774.205C773.438 462.408 772.836 463.029 772.836 463.774C772.836 464.54 773.458 465.141 774.205 465.141H775.925V466.859C775.925 467.625 776.547 468.226 777.294 468.226C778.061 468.226 778.662 467.605 778.662 466.859V465.141H780.383C781.15 465.141 781.751 464.52 781.751 463.774C781.751 463.008 781.129 462.408 780.383 462.408Z" fill="white"/>
<path d="M799.601 462.408H797.88V460.689C797.88 459.923 797.258 459.323 796.512 459.323C795.745 459.323 795.144 459.944 795.144 460.689V462.408H793.423C792.656 462.408 792.055 463.029 792.055 463.774C792.055 464.54 792.677 465.141 793.423 465.141H795.144V466.859C795.144 467.625 795.766 468.226 796.512 468.226C797.279 468.226 797.88 467.605 797.88 466.859V465.141H799.601C800.368 465.141 800.969 464.52 800.969 463.774C800.969 463.008 800.347 462.408 799.601 462.408Z" fill="white"/>
<path d="M818.84 462.408H817.119V460.689C817.119 459.923 816.497 459.323 815.751 459.323C814.984 459.323 814.383 459.944 814.383 460.689V462.408H812.662C811.895 462.408 811.294 463.029 811.294 463.774C811.294 464.54 811.916 465.141 812.662 465.141H814.383V466.859C814.383 467.625 815.005 468.226 815.751 468.226C816.518 468.226 817.119 467.605 817.119 466.859V465.141H818.84C819.607 465.141 820.208 464.52 820.208 463.774C820.208 463.008 819.586 462.408 818.84 462.408Z" fill="white"/>
<path d="M838.059 462.408H836.338V460.689C836.338 459.923 835.716 459.323 834.97 459.323C834.202 459.323 833.601 459.944 833.601 460.689V462.408H831.881C831.113 462.408 830.512 463.029 830.512 463.774C830.512 464.54 831.134 465.141 831.881 465.141H833.601V466.859C833.601 467.625 834.223 468.226 834.97 468.226C835.737 468.226 836.338 467.605 836.338 466.859V465.141H838.059C838.826 465.141 839.427 464.52 839.427 463.774C839.427 463.008 838.805 462.408 838.059 462.408Z" fill="white"/>
<path d="M761.164 481.311H759.444V479.593C759.444 478.827 758.822 478.226 758.075 478.226C757.308 478.226 756.707 478.847 756.707 479.593V481.311H754.986C754.219 481.311 753.618 481.933 753.618 482.678C753.618 483.444 754.24 484.044 754.986 484.044H756.707V485.763C756.707 486.529 757.329 487.13 758.075 487.13C758.843 487.13 759.444 486.508 759.444 485.763V484.044H761.164C761.932 484.044 762.533 483.423 762.533 482.678C762.533 481.912 761.911 481.311 761.164 481.311Z" fill="white"/>
<path d="M780.383 481.311H778.662V479.593C778.662 478.827 778.04 478.226 777.294 478.226C776.527 478.226 775.925 478.847 775.925 479.593V481.311H774.205C773.438 481.311 772.836 481.933 772.836 482.678C772.836 483.444 773.458 484.044 774.205 484.044H775.925V485.763C775.925 486.529 776.547 487.13 777.294 487.13C778.061 487.13 778.662 486.508 778.662 485.763V484.044H780.383C781.15 484.044 781.751 483.423 781.751 482.678C781.751 481.912 781.129 481.311 780.383 481.311Z" fill="white"/>
<path d="M799.601 481.311H797.88V479.593C797.88 478.827 797.258 478.226 796.512 478.226C795.745 478.226 795.144 478.847 795.144 479.593V481.311H793.423C792.656 481.311 792.055 481.933 792.055 482.678C792.055 483.444 792.677 484.044 793.423 484.044H795.144V485.763C795.144 486.529 795.766 487.13 796.512 487.13C797.279 487.13 797.88 486.508 797.88 485.763V484.044H799.601C800.368 484.044 800.969 483.423 800.969 482.678C800.969 481.912 800.347 481.311 799.601 481.311Z" fill="white"/>
<path d="M818.84 481.311H817.119V479.593C817.119 478.827 816.497 478.226 815.751 478.226C814.984 478.226 814.383 478.847 814.383 479.593V481.311H812.662C811.895 481.311 811.294 481.933 811.294 482.678C811.294 483.444 811.916 484.044 812.662 484.044H814.383V485.763C814.383 486.529 815.005 487.13 815.751 487.13C816.518 487.13 817.119 486.508 817.119 485.763V484.044H818.84C819.607 484.044 820.208 483.423 820.208 482.678C820.208 481.912 819.586 481.311 818.84 481.311Z" fill="white"/>
<path d="M838.058 481.311H836.338V479.593C836.338 478.827 835.716 478.226 834.969 478.226C834.202 478.226 833.601 478.847 833.601 479.593V481.311H831.88C831.113 481.311 830.512 481.933 830.512 482.678C830.512 483.444 831.134 484.044 831.88 484.044H833.601V485.763C833.601 486.529 834.223 487.13 834.969 487.13C835.736 487.13 836.338 486.508 836.338 485.763V484.044H838.058C838.825 484.044 839.427 483.423 839.427 482.678C839.427 481.912 838.805 481.311 838.058 481.311Z" fill="white"/>
</g>
<defs>
<filter id="filter0_d_1_592" x="904.067" y="136.31" width="57.426" height="57.4388" filterUnits="userSpaceOnUse" color-interpolation-filters="sRGB">
<feFlood flood-opacity="0" result="BackgroundImageFix"/>
<feColorMatrix in="SourceAlpha" type="matrix" values="0 0 0 0 0 0 0 0 0 0 0 0 0 0 0 0 0 0 127 0" result="hardAlpha"/>
<feOffset dx="1.47" dy="1.47"/>
<feGaussianBlur stdDeviation="2.58"/>
<feColorMatrix type="matrix" values="0 0 0 0 0.0705882 0 0 0 0 0.176471 0 0 0 0 0.337255 0 0 0 0.45 0"/>
<feBlend mode="normal" in2="BackgroundImageFix" result="effect1_dropShadow_1_592"/>
<feBlend mode="normal" in="SourceGraphic" in2="effect1_dropShadow_1_592" result="shape"/>
</filter>
<filter id="filter1_d_1_592" x="880.679" y="160.191" width="57.426" height="57.4388" filterUnits="userSpaceOnUse" color-interpolation-filters="sRGB">
<feFlood flood-opacity="0" result="BackgroundImageFix"/>
<feColorMatrix in="SourceAlpha" type="matrix" values="0 0 0 0 0 0 0 0 0 0 0 0 0 0 0 0 0 0 127 0" result="hardAlpha"/>
<feOffset dx="1.47" dy="1.47"/>
<feGaussianBlur stdDeviation="2.58"/>
<feColorMatrix type="matrix" values="0 0 0 0 0.0705882 0 0 0 0 0.176471 0 0 0 0 0.337255 0 0 0 0.45 0"/>
<feBlend mode="normal" in2="BackgroundImageFix" result="effect1_dropShadow_1_592"/>
<feBlend mode="normal" in="SourceGraphic" in2="effect1_dropShadow_1_592" result="shape"/>
</filter>
<linearGradient id="paint0_linear_1_592" x1="1386.46" y1="-226.199" x2="803.035" y2="1021.51" gradientUnits="userSpaceOnUse">
<stop stop-color="#10AFAB"/>
<stop offset="1" stop-color="#2B6EBD"/>
</linearGradient>
<linearGradient id="paint1_linear_1_592" x1="931.31" y1="130.106" x2="931.31" y2="185.843" gradientUnits="userSpaceOnUse">
<stop stop-color="white"/>
<stop offset="1" stop-color="#C6F5FF"/>
</linearGradient>
<linearGradient id="paint2_linear_1_592" x1="938.464" y1="187.464" x2="875.11" y2="187.464" gradientUnits="userSpaceOnUse">
<stop stop-color="white"/>
<stop offset="1" stop-color="#C6F5FF"/>
</linearGradient>
<clipPath id="clip0_1_592">
<rect width="1920" height="646" fill="white"/>
</clipPath>
</defs>
</svg>
