<svg width="162" height="104" viewBox="0 0 162 104" fill="none" xmlns="http://www.w3.org/2000/svg">
<path d="M76.7117 61.4025V62.1258H75.9932V61.4025V59.4382V57.4663H76.7117H83.8587V58.1972H76.7117V59.4382H83.0419V60.1615H76.7117V61.4025Z" fill="#0F3D3E"/>
<path d="M90.8393 57.4665C91.0133 57.4665 91.1721 57.4969 91.3233 57.5655C91.4746 57.634 91.6032 57.7177 91.7166 57.8319C91.8301 57.9461 91.9208 58.0756 91.9889 58.2278C92.057 58.3801 92.0872 58.54 92.0872 58.7075V60.8849C92.0872 61.06 92.057 61.2199 91.9889 61.3646C91.9208 61.5168 91.8301 61.6463 91.7166 61.7605C91.6032 61.8747 91.4746 61.9584 91.3233 62.0269C91.1721 62.0955 91.0133 62.1259 90.8393 62.1259H85.4469C85.2729 62.1259 85.1141 62.0955 84.9628 62.0269C84.8116 61.9584 84.6754 61.8747 84.562 61.7605C84.4485 61.6463 84.3578 61.5168 84.2973 61.3646C84.2292 61.2123 84.199 61.0524 84.199 60.8849V58.7075C84.199 58.5324 84.2292 58.3725 84.2973 58.2278C84.3654 58.0756 84.4485 57.9461 84.562 57.8319C84.6754 57.7177 84.804 57.634 84.9628 57.5655C85.1217 57.4969 85.2729 57.4665 85.4469 57.4665H90.8393ZM85.4469 58.1974C85.3788 58.1974 85.3107 58.2126 85.2427 58.2354C85.1822 58.2583 85.1217 58.2963 85.0763 58.342C85.0309 58.3877 84.9931 58.441 84.9628 58.5095C84.9326 58.5704 84.9175 58.6389 84.9175 58.7075V60.8849C84.9175 60.9534 84.9326 61.022 84.9628 61.0829C84.9931 61.1438 85.0309 61.1971 85.0763 61.2504C85.1217 61.2961 85.1822 61.3341 85.2427 61.3646C85.3032 61.395 85.3712 61.4103 85.4469 61.4103H90.8393C90.9074 61.4103 90.9754 61.395 91.0435 61.3646C91.104 61.3341 91.1645 61.2961 91.2099 61.2504C91.2553 61.2047 91.2931 61.1514 91.3233 61.0829C91.3536 61.022 91.3687 60.9534 91.3687 60.8849V58.7075C91.3687 58.6389 91.3536 58.5704 91.3233 58.5095C91.2931 58.4486 91.2553 58.3953 91.2099 58.342C91.1645 58.2963 91.104 58.2583 91.0435 58.2354C90.983 58.205 90.9149 58.1974 90.8393 58.1974H85.4469Z" fill="#0F3D3E"/>
<path d="M100.414 60.8849C100.414 61.1362 100.346 61.3646 100.217 61.5625C100.089 61.7605 99.915 61.9051 99.6956 62.0041C99.5368 62.0879 99.3629 62.1259 99.1814 62.1259H93.7814C93.5998 62.1259 93.4335 62.0879 93.2671 62.0041C93.1612 61.9508 93.0629 61.8899 92.9797 61.8138C92.8889 61.7376 92.8133 61.6539 92.7528 61.5549C92.6923 61.4559 92.6393 61.3493 92.6015 61.2428C92.5637 61.1286 92.5486 61.0067 92.5486 60.8849V58.7075V57.4665H93.2671V57.5883V58.7075V60.8849C93.2671 60.9534 93.2822 61.022 93.3125 61.0829C93.3427 61.1438 93.3805 61.1971 93.4259 61.2504C93.4713 61.2961 93.5242 61.3341 93.5923 61.3646C93.6528 61.395 93.7209 61.4103 93.7889 61.4103H99.1889C99.257 61.4103 99.3251 61.395 99.3856 61.3646C99.4461 61.3341 99.499 61.2961 99.552 61.2504C99.5973 61.2047 99.6351 61.1514 99.6578 61.0829C99.6805 61.022 99.6956 60.9534 99.6956 60.8849V58.7075V57.5883V57.4665H100.414V58.7075V60.8849Z" fill="#0F3D3E"/>
<path d="M100.875 62.1031V58.2507V57.4436L101.602 57.8015L104.808 59.3851L108.038 60.9687V57.4665H108.756V61.3265V62.1259L108.038 61.7681L104.808 60.1845L101.602 58.6009V62.0955H100.875V62.1031Z" fill="#0F3D3E"/>
<path d="M117.091 59.7962C117.091 59.8647 117.091 59.9256 117.083 59.9865C117.076 60.0474 117.068 60.1084 117.068 60.1693C117.03 60.4053 116.955 60.6337 116.849 60.8392C116.743 61.0524 116.607 61.2428 116.448 61.4103L116.372 61.4864C116.16 61.6843 115.918 61.8366 115.646 61.9584C115.374 62.0726 115.079 62.1335 114.769 62.1335H109.225V61.4103V60.1693V59.7962V59.4384V58.1974V57.4665H114.769C115.079 57.4665 115.374 57.5274 115.646 57.6416C115.918 57.7558 116.16 57.9157 116.372 58.1136C116.402 58.1365 116.425 58.1669 116.448 58.1898C116.607 58.3573 116.735 58.54 116.849 58.7532C116.955 58.9663 117.03 59.1871 117.068 59.4308C117.076 59.4917 117.083 59.545 117.083 59.6059C117.091 59.6668 117.091 59.7277 117.091 59.7962ZM109.944 60.1616V61.4026H114.769C114.958 61.4026 115.139 61.3722 115.306 61.3113C115.472 61.2504 115.631 61.159 115.767 61.0524C115.903 60.9382 116.024 60.8088 116.115 60.6565C116.213 60.5043 116.281 60.3368 116.327 60.1616C116.342 60.1007 116.349 60.0398 116.357 59.9789C116.365 59.918 116.365 59.8571 116.365 59.7886C116.365 59.7277 116.365 59.6668 116.357 59.6059C116.349 59.545 116.342 59.4917 116.327 59.4308C116.281 59.2556 116.213 59.0881 116.115 58.9359C116.017 58.7836 115.903 58.6542 115.767 58.54C115.631 58.4334 115.472 58.342 115.306 58.2811C115.132 58.2202 114.958 58.1898 114.769 58.1898H109.944V59.4308V59.7886V60.1616Z" fill="#0F3D3E"/>
<path d="M123.043 61.2656H118.376L118.263 61.4026L117.635 62.1259H116.773H116.682L116.773 62.0041L117.295 61.4026L118.384 60.1616L118.686 59.7886L119.004 59.4307L120.078 58.1898L120.237 58.0146L120.706 57.4589L121.197 58.0146L121.341 58.1898L122.415 59.4307L122.725 59.7886L123.043 60.1616L124.117 61.4026L124.638 62.0041L124.744 62.1259H124.638H123.791L123.164 61.4026L123.043 61.2656ZM122.43 60.5423L122.09 60.1616L121.78 59.7886L121.462 59.4307L120.713 58.5704L119.972 59.4307L119.654 59.7886L119.337 60.1616L119.012 60.5423H122.43Z" fill="#0F3D3E"/>
<path d="M126.711 59.4384V59.7962V60.1693V61.4103V62.1335H125.992V61.4103V60.1693V59.7962V59.4384V58.1974H122.423V57.4665H125.992H126.711H130.288V58.1974H126.711V59.4384Z" fill="#0F3D3E"/>
<path d="M131.483 62.1259H130.757V58.1974V57.4665H131.483V58.1974V59.4384V60.1616V61.4026V62.1259Z" fill="#0F3D3E"/>
<path d="M138.585 57.4665C138.759 57.4665 138.917 57.4969 139.069 57.5655C139.22 57.634 139.349 57.7177 139.462 57.8319C139.575 57.9461 139.666 58.0756 139.734 58.2278C139.802 58.3801 139.833 58.54 139.833 58.7075V60.8849C139.833 61.06 139.802 61.2199 139.734 61.3646C139.666 61.5168 139.575 61.6463 139.462 61.7605C139.349 61.8747 139.22 61.9584 139.069 62.0269C138.917 62.0955 138.759 62.1259 138.585 62.1259H133.192C133.018 62.1259 132.859 62.0955 132.708 62.0269C132.557 61.9584 132.421 61.8747 132.307 61.7605C132.194 61.6463 132.103 61.5168 132.043 61.3646C131.975 61.2123 131.944 61.0524 131.944 60.8849V58.7075C131.944 58.5324 131.975 58.3725 132.043 58.2278C132.111 58.0756 132.194 57.9461 132.307 57.8319C132.421 57.7177 132.549 57.634 132.708 57.5655C132.867 57.4969 133.018 57.4665 133.192 57.4665H138.585ZM133.192 58.1974C133.124 58.1974 133.056 58.2126 132.988 58.2354C132.928 58.2583 132.867 58.2963 132.822 58.342C132.776 58.3877 132.738 58.441 132.708 58.5095C132.678 58.5704 132.663 58.6389 132.663 58.7075V60.8849C132.663 60.9534 132.678 61.022 132.708 61.0829C132.738 61.1438 132.776 61.1971 132.822 61.2504C132.867 61.2961 132.928 61.3341 132.988 61.3646C133.049 61.395 133.117 61.4103 133.192 61.4103H138.585C138.653 61.4103 138.721 61.395 138.789 61.3646C138.849 61.3341 138.91 61.2961 138.955 61.2504C139.001 61.2047 139.038 61.1514 139.069 61.0829C139.099 61.022 139.114 60.9534 139.114 60.8849V58.7075C139.114 58.6389 139.099 58.5704 139.069 58.5095C139.038 58.4486 139.001 58.3953 138.955 58.342C138.91 58.2963 138.849 58.2583 138.789 58.2354C138.728 58.205 138.66 58.1974 138.585 58.1974H133.192Z" fill="#0F3D3E"/>
<path d="M140.324 62.1031V58.2507V57.4436L141.05 57.8015L144.257 59.3851L147.486 60.9687V57.4665H148.205V61.3265V62.1259L147.486 61.7681L144.257 60.1845L141.05 58.6009V62.0955H140.324V62.1031Z" fill="#0F3D3E"/>
<path d="M89.9093 46.0386C89.9093 46.1528 89.9017 46.267 89.8941 46.3736C89.8866 46.4801 89.8714 46.5867 89.8639 46.7009C89.7882 47.1273 89.6597 47.5308 89.4706 47.9039C89.2815 48.2845 89.0395 48.6195 88.7597 48.9241L88.616 49.0687C88.2378 49.4189 87.8067 49.7006 87.3151 49.9138C86.8235 50.127 86.3017 50.226 85.7496 50.226H75.8193V48.9241V46.7009V46.0386V45.399V43.1759V41.874H85.7496C86.3017 41.874 86.8235 41.9806 87.3151 42.1861C87.8067 42.3993 88.2378 42.681 88.616 43.0389C88.6689 43.0845 88.7143 43.1302 88.7597 43.1835C89.0395 43.4804 89.2815 43.8154 89.4706 44.1961C89.6597 44.5768 89.7958 44.9803 89.8639 45.4066C89.8714 45.5132 89.8866 45.6198 89.8941 45.7188C89.9017 45.8178 89.9093 45.9244 89.9093 46.0386ZM77.1051 46.7009V48.9241H85.742C86.0824 48.9241 86.4 48.8708 86.7101 48.7566C87.0126 48.6424 87.2924 48.4901 87.542 48.2921C87.7916 48.0942 87.9958 47.8582 88.1698 47.5841C88.3437 47.31 88.4647 47.0207 88.5479 46.7009C88.5782 46.5867 88.5933 46.4801 88.6008 46.3736C88.6084 46.267 88.616 46.1528 88.616 46.0386C88.616 45.9244 88.6084 45.8178 88.6008 45.7188C88.5933 45.6122 88.5706 45.5132 88.5479 45.4066C88.4723 45.0869 88.3437 44.79 88.1698 44.5159C87.9958 44.2418 87.784 44.0058 87.542 43.8078C87.2924 43.6099 87.0202 43.4576 86.7101 43.3434C86.4076 43.2292 86.0824 43.1759 85.742 43.1759H77.1051V45.399V46.0386V46.7009Z" fill="#0F3D3E"/>
<path d="M92.0269 46.701V48.9242V50.2261H90.7336V46.0387V45.3991V41.8741H92.0269H102.434C102.903 41.8741 103.334 41.9959 103.712 42.2319C104.09 42.4679 104.377 42.7877 104.582 43.1836C104.755 43.5186 104.839 43.8917 104.839 44.2876C104.839 44.6835 104.755 45.0565 104.582 45.4067C104.506 45.5209 104.43 45.6351 104.355 45.7493C104.271 45.8635 104.188 45.9625 104.09 46.0463C104.181 46.1376 104.271 46.2442 104.355 46.3584C104.438 46.4726 104.513 46.5868 104.582 46.7086C104.755 47.0436 104.839 47.4167 104.839 47.8126V48.9242V50.2261H103.545V48.9242V47.8126C103.545 47.6603 103.515 47.5157 103.455 47.3862C103.394 47.2492 103.319 47.135 103.22 47.036C103.122 46.937 103.001 46.8533 102.872 46.8C102.736 46.7391 102.592 46.7086 102.441 46.7086H92.0269V46.701ZM92.0269 45.3991H102.434H102.547H102.57C102.706 45.3839 102.834 45.3382 102.955 45.2697C103.077 45.2012 103.182 45.1174 103.273 45.0261C103.364 44.9271 103.432 44.8129 103.485 44.6911C103.538 44.5616 103.561 44.4322 103.561 44.2876C103.561 44.1505 103.53 44.0135 103.485 43.884C103.432 43.7546 103.364 43.6404 103.273 43.5414C103.182 43.4425 103.077 43.3663 102.955 43.2978C102.834 43.2369 102.706 43.1912 102.57 43.176H102.426H92.0194V45.3991H92.0269Z" fill="#0F3D3E"/>
<path d="M114.92 43.1836L116.75 41.8741H118.982L117.151 43.1836L114.005 45.4067L113.09 46.0463L112.621 46.3965V50.2261H111.963H111.328V46.3965L110.851 46.0463L109.936 45.4067L106.798 43.1836L104.937 41.8741H107.191L109.013 43.1836L111.956 45.2621L114.92 43.1836Z" fill="#0F3D3E"/>
<path d="M121.114 48.9242V50.2261H119.821V46.701V43.176V41.8741H121.114H131.529C131.998 41.8741 132.421 41.9959 132.799 42.2319C133.177 42.4679 133.465 42.7877 133.661 43.1836C133.835 43.5186 133.919 43.8917 133.919 44.2876C133.919 44.6835 133.835 45.0565 133.661 45.4067C133.563 45.6047 133.434 45.7798 133.291 45.9397C133.147 46.0996 132.981 46.2366 132.792 46.3508C132.61 46.465 132.413 46.5564 132.194 46.6173C131.982 46.6782 131.755 46.7086 131.521 46.7086H121.107V48.9242H121.114ZM131.529 45.3991C131.68 45.3991 131.824 45.3687 131.96 45.3078C132.096 45.2468 132.217 45.1707 132.315 45.0717C132.421 44.9728 132.497 44.851 132.557 44.7139C132.618 44.5769 132.648 44.4322 132.648 44.2799C132.648 44.1277 132.618 43.983 132.557 43.8536C132.497 43.7165 132.413 43.6023 132.315 43.5034C132.209 43.4044 132.096 43.3206 131.96 43.2673C131.824 43.2064 131.68 43.176 131.529 43.176H121.114V45.3991H131.529Z" fill="#0F3D3E"/>
<path d="M136.49 43.2673C136.354 43.3283 136.24 43.4044 136.142 43.5034C136.044 43.6023 135.96 43.7242 135.907 43.8536C135.847 43.9906 135.817 44.1277 135.817 44.2799C135.817 44.4322 135.847 44.5769 135.907 44.7139C135.968 44.8509 136.044 44.9728 136.142 45.0717C136.24 45.1707 136.361 45.2545 136.49 45.3078C136.626 45.3687 136.77 45.3991 136.921 45.3991H146.246C146.564 45.3991 146.859 45.46 147.139 45.5742C147.418 45.6884 147.66 45.8483 147.872 46.0387C147.963 46.13 148.054 46.2366 148.137 46.3508C148.22 46.465 148.296 46.5792 148.364 46.701C148.538 47.036 148.621 47.4091 148.621 47.805C148.621 48.2009 148.538 48.5739 148.364 48.9165C148.167 49.3048 147.872 49.6246 147.494 49.8606C147.116 50.0966 146.692 50.2184 146.216 50.2184H135.809H134.516V48.9165H135.809H146.216C146.375 48.9165 146.518 48.8861 146.647 48.8252C146.783 48.7643 146.897 48.6881 146.995 48.5892C147.093 48.4902 147.176 48.3684 147.229 48.2313C147.29 48.0943 147.32 47.9496 147.32 47.7974C147.32 47.6451 147.29 47.5004 147.229 47.371C147.169 47.234 147.093 47.1198 146.995 47.0208C146.897 46.9218 146.783 46.8381 146.655 46.7848C146.526 46.7239 146.382 46.6934 146.231 46.6934H146.208H136.883C136.505 46.6934 136.142 46.602 135.802 46.4117C135.703 46.3584 135.613 46.3051 135.529 46.2442C135.439 46.1833 135.363 46.1148 135.287 46.031C135.181 45.9473 135.091 45.8483 135.007 45.7341C134.924 45.6199 134.856 45.5057 134.796 45.3915C134.697 45.224 134.629 45.0489 134.584 44.8662C134.539 44.6835 134.516 44.4931 134.516 44.3028V44.2495C134.516 44.0592 134.539 43.8688 134.584 43.6861C134.629 43.5034 134.705 43.3283 134.796 43.1684C134.902 42.94 135.045 42.742 135.219 42.5669C135.393 42.3994 135.59 42.2548 135.802 42.1406C136.149 41.9502 136.513 41.8589 136.906 41.8589H148.606V43.1684H147.328H136.921C136.77 43.1836 136.626 43.2064 136.49 43.2673Z" fill="#0F3D3E"/>
<path d="M63.5446 54.2612C63.5446 54.2612 60.4135 47.9649 60.4135 42.7649C60.4135 39.3845 61.0715 35.9356 61.5404 33.9408C61.8127 32.776 61.5177 31.5578 60.7387 30.6518C58.727 28.3145 54.4917 24.1804 49.7799 24.1804C43.2076 24.1804 43.9942 28.2764 43.9942 33.9408C43.9942 38.3567 42.474 41.6304 41.8009 42.8562C41.6345 43.1608 41.4379 43.4425 41.2186 43.7013C40.2202 44.8738 36.7942 48.9927 36.7942 50.4697C36.7942 52.2056 37.2631 54.0937 37.2631 54.0937C37.2631 54.0937 37.4824 56.9944 36.6051 57.87C36.106 58.3725 35.6824 58.3039 35.4102 58.1517C35.1984 58.0375 35.0774 57.8091 35.085 57.5731C35.1076 56.9259 35.1228 55.4032 34.7597 55.0378C34.4043 54.6799 33.9656 53.3476 33.769 52.708C33.7009 52.4873 33.6858 52.2512 33.7312 52.0228L35.3875 43.077C35.3875 43.077 36.6354 27.1725 35.8413 25.528C35.2438 24.287 32.7934 28.9845 31.6287 31.3751C31.2203 32.2126 30.9253 33.1034 30.7438 34.0246C30.1085 37.3745 28.6564 45.9092 28.4976 47.3329C28.3085 49.0536 28.4976 52.6852 27.8698 52.6852C27.416 52.6852 26.9547 52.0152 26.7429 51.6498C26.6597 51.5127 26.5614 51.3757 26.4707 51.2463C25.5102 49.8834 25.3362 45.4143 25.3287 42.4755C25.3211 40.8006 25.5253 39.1332 25.9186 37.5116L26.8866 33.5526C27.1892 32.3039 27.6656 31.101 28.2782 29.9666C29.0421 28.5657 29.9043 26.5482 29.1253 25.7564C27.8774 24.5001 22.4018 28.7485 18.9606 32.2126C15.5194 35.6767 19.4295 40.8767 19.4295 40.8767C19.4295 40.8767 35.4631 72.9218 36.8698 72.9218C37.9287 72.9218 37.4824 65.3616 37.195 61.6006C37.1118 60.4738 37.3539 59.347 37.8908 58.3572C38.511 57.2 38.4808 56.0656 38.3824 55.2586C38.3371 54.8779 38.2312 54.5048 38.095 54.1394C37.7169 53.1344 37.6942 50.9874 37.9665 50.7133C38.2009 50.3174 42.9883 43.2902 43.79 42.072C43.8883 41.9274 44.0018 41.7979 44.1379 41.6914C44.6749 41.2878 45.0681 41.5086 45.3404 41.8588C45.6959 42.3233 45.7186 42.9628 45.4539 43.4881L43.7522 46.7924C43.7371 46.8228 43.7824 46.8533 43.7976 46.8228L45.6808 44.3332C46.006 43.9069 46.5883 43.7394 47.0648 43.983C47.5186 44.2114 47.7001 44.5921 47.7757 44.8966C47.8362 45.1479 47.7908 45.4067 47.6623 45.6275L45.7866 49.0003C45.7715 49.0307 45.8093 49.0612 45.832 49.0307L47.4202 47.0893C47.7681 46.663 48.4034 46.5487 48.8421 46.8914C49.0009 47.0132 49.0992 47.1654 49.1597 47.3177C49.2883 47.6451 49.2203 48.0181 49.0236 48.3075C48.4866 49.0764 47.0799 51.1244 47.6547 50.5458C48.1765 50.0205 48.6908 49.754 48.9329 49.655C49.0387 49.6094 49.1673 49.5941 49.2732 49.6398C49.9992 49.9672 49.0312 52.1523 48.5925 52.5938C48.3202 52.8679 47.7228 52.6624 47.2766 52.4416C46.7547 52.1827 46.1572 52.099 45.59 52.2436C44.3194 52.571 44.2362 53.477 44.2892 53.9795C44.3118 54.1546 44.1908 54.3221 44.0169 54.3602C42.9354 54.6038 42.8673 55.9971 42.9127 56.7203C42.9278 56.9411 42.7841 57.1391 42.5799 57.2228C41.5589 57.6416 41.99 59.8266 42.1337 60.4509C42.1564 60.5575 42.1488 60.6641 42.1034 60.7631C41.9597 61.0676 41.6723 61.7833 41.6723 62.5066C41.6723 63.4583 43.7446 63.9151 45.0001 63.9151C46.248 63.9151 47.0345 68.9552 47.0345 73.9953C47.0345 79.0354 48.1312 78.8755 48.1312 78.8755C48.1312 78.8755 52.2001 79.8196 55.3236 76.6676C58.4471 73.5157 52.3513 53.8348 52.3513 53.8348C52.3513 53.8348 47.6623 40.4504 51.2547 36.8263C53.4707 34.5956 54.2572 35.3493 54.5446 36.2553C54.7186 36.8035 54.5976 37.3974 54.2723 37.8694C53.9093 38.4023 53.448 39.59 53.448 42.1786C53.448 44.0896 53.8261 46.3889 54.2421 48.3303C54.6581 50.2793 55.3539 52.1446 56.2312 53.9262C58.727 59.0272 59.2942 72.4878 60.5648 72.4878C61.9715 72.4878 62.3648 70.3637 64.9438 67.7675C67.5303 65.2094 63.5446 54.2612 63.5446 54.2612ZM46.785 62.8492C46.5429 63.0928 44.4177 62.9177 43.9261 62.8644C43.8581 62.8568 43.7976 62.8568 43.7295 62.8492C42.1942 62.7959 42.9354 61.5549 42.9354 61.5549C43.0639 61.1742 45.0303 61.4026 46.0211 61.5854C46.3992 61.6539 46.7244 61.9127 46.8606 62.2706C46.9513 62.5142 46.853 62.7883 46.785 62.8492ZM47.5034 60.253C46.9589 60.8012 45.5144 60.5042 44.5992 60.2378C44.1681 60.116 43.7371 60.0246 43.2984 59.9332C42.0732 59.6896 42.8219 58.4943 43.1245 58.1897C43.3287 57.9842 43.8656 58.1669 44.274 58.3496C44.6446 58.5171 45.0379 58.6085 45.4387 58.6313L47.1102 58.6998C47.4808 58.7151 47.7984 58.9892 47.8589 59.3546C47.8967 59.6135 47.8287 59.9256 47.5034 60.253ZM48.7135 56.9944C48.2749 58.1745 46.8152 57.7786 45.3253 57.7786C43.8354 57.7786 43.8883 55.959 43.8883 55.959C43.8883 55.959 44.032 55.3728 44.6219 55.3728C44.8261 55.3728 45.0833 55.4413 45.3329 55.5403C45.9455 55.7687 46.5808 55.9362 47.2312 56.0123C49.0463 56.2255 48.7135 56.9944 48.7135 56.9944ZM47.1177 55.2281C47.1177 55.2281 45.2194 54.7865 45.2194 53.6064C45.2194 52.7689 46.2631 52.9745 46.8606 53.1649C47.1177 53.2486 47.39 53.3019 47.6547 53.3323C48.9404 53.4846 49.311 54.3906 49.311 54.9312C49.311 55.525 47.1177 55.2281 47.1177 55.2281Z" fill="url(#paint0_linear_1_735)"/>
<path d="M64.5504 36.5751C64.142 39.3464 62.7126 51.4138 67.9689 57.3903C68.158 57.6035 68.4983 57.5122 68.574 57.2457C69.2925 54.5658 71.6672 43.6024 65.0496 36.4229C64.8832 36.2401 64.5807 36.3315 64.5504 36.5751Z" fill="url(#paint1_linear_1_735)"/>
<path d="M15.7236 41.0823C15.4892 40.6255 14.8312 40.7168 14.7026 41.2117C13.9614 44.0287 12.5472 48.1247 12.6228 56.5833C12.6909 64.1892 25.843 78.0457 27.0909 76.7895C28.0967 75.7769 27.0757 70.3561 26.6371 68.2928C26.5463 67.8512 26.8186 67.4173 27.2572 67.3183C27.6051 67.2422 27.9606 67.4401 28.074 67.7751L30.169 73.7441C30.4337 74.5054 30.6606 75.282 30.827 76.0738C31.311 78.3654 31.8783 80.1165 33.6556 79.7816C36.1589 79.3095 32.8766 74.4293 32.8766 74.4293L15.7236 41.0823Z" fill="url(#paint2_linear_1_735)"/>
<defs>
<linearGradient id="paint0_linear_1_735" x1="34.3328" y1="29.1557" x2="52.6659" y2="57.6799" gradientUnits="userSpaceOnUse">
<stop stop-color="#15DCCC"/>
<stop offset="0.5213" stop-color="#099B9C"/>
<stop offset="1" stop-color="#1F4948"/>
</linearGradient>
<linearGradient id="paint1_linear_1_735" x1="49.3943" y1="25.7682" x2="74.7583" y2="56.6606" gradientUnits="userSpaceOnUse">
<stop offset="0.0244089" stop-color="#15DCCC"/>
<stop offset="0.3758" stop-color="#099B9C"/>
<stop offset="0.8396" stop-color="#1F4948"/>
</linearGradient>
<linearGradient id="paint2_linear_1_735" x1="-22.7921" y1="-4.06319" x2="31.6522" y2="75.5099" gradientUnits="userSpaceOnUse">
<stop offset="0.4608" stop-color="#15DCCC"/>
<stop offset="0.631" stop-color="#099B9C"/>
<stop offset="0.7486" stop-color="#0A9899"/>
<stop offset="0.8207" stop-color="#0C9091"/>
<stop offset="0.8806" stop-color="#108283"/>
<stop offset="0.9338" stop-color="#156E6E"/>
<stop offset="0.982" stop-color="#1C5554"/>
<stop offset="1" stop-color="#1F4948"/>
</linearGradient>
</defs>
</svg>
