<svg width="246" height="247" viewBox="0 0 246 247" fill="none" xmlns="http://www.w3.org/2000/svg">
<path d="M189.323 130.954V113.715L214.122 114.622C214.526 115.63 214.788 119.764 212.61 128.232C209.888 138.817 207.166 148.192 195.674 156.66C189.314 161.346 171.58 163.818 163.314 164.221C163.414 171.883 162.467 191.38 157.87 208.074C152.124 228.942 142.748 238.015 130.348 243.459C120.429 247.814 107.464 246.483 102.222 245.273V229.547C102.222 223.982 103.432 216.34 104.037 213.215L132.465 218.054C132.667 219.163 132.949 222.349 132.465 226.22C131.982 230.091 129.24 235.696 127.929 238.015C128.836 237.914 131.316 236.2 133.978 230.152C137.304 222.591 137.304 208.074 137.607 204.142C137.849 200.997 138.313 159.886 138.514 139.724C139.018 139.522 141.357 138.938 146.68 138.212C153.333 137.305 191.44 136.397 199.606 135.188C206.138 134.22 208.981 127.123 209.586 123.695C209.586 123.695 208.074 127.022 205.957 128.836C203.84 130.651 201.118 130.954 201.118 130.954H189.323Z" fill="#E8E8E8"/>
<path d="M55.9237 115.503L55.9237 132.742L31.1242 131.835C30.721 130.827 30.4589 126.693 32.6364 118.225C35.3583 107.64 38.0802 98.2646 49.5726 89.7965C55.9321 85.1105 73.6664 82.6389 81.9329 82.2356C81.8321 74.574 82.7798 55.0772 87.3767 38.3828C93.123 17.515 102.498 8.44197 114.898 2.99819C124.818 -1.35686 137.782 -0.0261531 143.024 1.18358L143.024 16.9101C143.024 22.4749 141.815 30.1163 141.21 33.2415L112.781 28.4026C112.579 27.2936 112.297 24.108 112.781 20.2369C113.265 16.3657 116.007 10.7606 117.318 8.44197C116.41 8.54279 113.93 10.2566 111.269 16.3052C107.942 23.8661 107.942 38.3828 107.64 42.3145C107.398 45.4598 106.934 86.5705 106.732 106.733C106.228 106.934 103.89 107.519 98.5668 108.245C91.9132 109.152 53.8067 110.059 45.641 111.269C39.1084 112.237 36.2656 119.334 35.6607 122.762C35.6607 122.762 37.1729 119.435 39.2899 117.62C41.4069 115.806 44.1288 115.503 44.1288 115.503L55.9237 115.503Z" fill="#E8E8E8"/>
<path d="M129.744 57.1307L112.505 57.1307L113.412 32.3312C114.42 31.928 118.554 31.6659 127.022 33.8434C137.607 36.5653 146.982 39.2872 155.45 50.7797C160.136 57.1392 162.608 74.8735 163.011 83.14C170.673 83.0392 190.17 83.9868 206.864 88.5838C227.732 94.33 236.805 103.705 242.249 116.105C246.604 126.025 245.273 138.989 244.063 144.231L228.337 144.231C222.772 144.231 215.13 143.022 212.005 142.417L216.844 113.988C217.953 113.787 221.139 113.504 225.01 113.988C228.881 114.472 234.486 117.214 236.805 118.525C236.704 117.617 234.99 115.137 228.942 112.476C221.381 109.149 206.864 109.149 202.932 108.847C199.787 108.605 158.676 108.141 138.514 107.939C138.312 107.435 137.728 105.097 137.002 99.7738C136.095 93.1203 135.187 55.0137 133.978 46.848C133.01 40.3155 125.913 37.4726 122.485 36.8677C122.485 36.8677 125.812 38.3799 127.627 40.4969C129.441 42.614 129.744 45.3359 129.744 45.3359L129.744 57.1307Z" fill="#E8E8E8"/>
<path d="M115.503 189.326L132.742 189.326L131.834 214.125C130.826 214.529 126.693 214.791 118.225 212.613C107.64 209.891 98.2643 207.169 89.7962 195.677C85.1103 189.317 82.6386 171.583 82.2354 163.317C74.5738 163.417 55.0769 162.47 38.3826 157.873C17.5147 152.127 8.44173 142.751 2.99794 130.351C-1.3571 120.432 -0.026397 107.467 1.18333 102.225L16.9099 102.225C22.4746 102.225 30.1161 103.435 33.2412 104.04L28.4023 132.468C27.2934 132.67 24.1078 132.952 20.2366 132.468C16.3655 131.985 10.7604 129.242 8.44173 127.932C8.54254 128.839 10.2563 131.319 16.305 133.981C23.8658 137.307 38.3826 137.307 42.3142 137.61C45.4595 137.852 86.5703 138.315 106.732 138.517C106.934 139.021 107.519 141.36 108.245 146.683C109.152 153.336 110.059 191.443 111.269 199.609C112.237 206.141 119.334 208.984 122.761 209.589C122.761 209.589 119.435 208.077 117.62 205.96C115.805 203.843 115.503 201.121 115.503 201.121L115.503 189.326Z" fill="#E8E8E8"/>
<path d="M183.275 40.8286C190.029 47.583 203.719 61.2126 204.445 61.6965C198.296 70.3662 183.154 84.7419 171.782 72.8865C160.411 61.0311 174.706 46.5748 183.275 40.8286Z" fill="#E8E8E8"/>
<path d="M184.484 204.101C191.238 197.346 204.929 183.717 205.654 183.233C199.505 174.563 184.363 160.187 172.992 172.043C161.62 183.898 175.915 198.354 184.484 204.101Z" fill="#E8E8E8"/>
<path d="M59.8816 40.8286C53.1272 47.583 39.4371 61.2126 38.7113 61.6965C44.8607 70.3662 60.0026 84.7419 71.374 72.8865C82.7455 61.0311 68.4505 46.5748 59.8816 40.8286Z" fill="#E8E8E8"/>
<path d="M61.0915 205.915C54.3372 199.161 40.6471 185.531 39.9212 185.047C46.0707 176.377 61.2125 162.002 72.584 173.857C83.9555 185.713 69.6605 200.169 61.0915 205.915Z" fill="#E8E8E8"/>
</svg>
