<svg width="90" height="90" viewBox="0 0 90 90" fill="none" xmlns="http://www.w3.org/2000/svg">
<path opacity="0.25" d="M59.5415 89.5497H30.1439C28.6305 88.9078 28.1329 87.7691 28.1537 86.154C28.2158 78.2861 28.1744 70.4182 28.1744 62.5502V61.4321H27.0341C19.0939 61.4321 11.1744 61.4321 3.23415 61.4321C0.995121 61.4321 0.0414604 60.4797 0.0414604 58.2435C0.0414604 49.361 0.0829268 40.4785 0 31.596C0 29.2978 1.05731 28.0762 3.46219 28.0969C11.3402 28.1797 19.2183 28.1176 27.0756 28.1176H28.1537V26.9374C28.1537 19.0694 28.1537 11.2015 28.1537 3.33353C28.1537 0.911027 29.0451 0 31.45 0C40.3646 0 49.3 0 58.2146 0C60.578 0 61.4902 0.91103 61.4902 3.27141C61.4902 11.2015 61.4902 19.1108 61.4902 27.0409V28.0969H62.6927C70.5293 28.0969 78.3866 28.1176 86.2232 28.0762C87.8402 28.0762 88.9805 28.5524 89.6232 30.0639V59.4444C88.9805 60.9559 87.8402 61.4528 86.2232 61.4321C78.3451 61.37 70.4878 61.4114 62.6098 61.4114H61.4902V62.5295C61.4902 70.3974 61.4695 78.2447 61.511 86.1126C61.511 87.7276 61.0341 88.8664 59.5207 89.5083L59.5415 89.5497Z" fill="#10AFAB"/>
</svg>
