<svg width="64" height="64" viewBox="0 0 64 64" fill="none" xmlns="http://www.w3.org/2000/svg">
<path opacity="0.15" d="M42.8377 63.0448H22.1475C21.0901 62.5893 20.7377 61.8025 20.7377 60.6637C20.7792 55.1355 20.7377 49.5865 20.7377 44.0582V43.2714H19.9292C14.3524 43.2714 8.75479 43.2714 3.17796 43.2714C1.60235 43.2714 0.938965 42.6089 0.938965 41.0353C0.938965 34.7823 0.980408 28.5294 0.918213 22.2764C0.918213 20.6614 1.66458 19.7918 3.34385 19.8125C8.87922 19.8746 14.4353 19.8332 19.9707 19.8332H20.7377V19.005C20.7377 13.4768 20.7377 7.92777 20.7377 2.3995C20.7377 0.680978 21.3597 0.0598145 23.0597 0.0598145C29.3414 0.0598145 35.6231 0.0598145 41.9048 0.0598145C43.5633 0.0598145 44.206 0.701675 44.206 2.35808C44.206 7.92776 44.206 13.5182 44.206 19.0878V19.8332H45.056C50.5707 19.8332 56.106 19.8539 61.6206 19.8332C62.7609 19.8332 63.5694 20.1645 64.0048 21.2412V41.9256C63.5487 42.9815 62.7609 43.3335 61.6206 43.3335C56.0853 43.2921 50.5499 43.3335 44.9938 43.3335H44.206V44.1203C44.206 49.6486 44.206 55.1976 44.206 60.7258C44.206 61.8646 43.8743 62.6721 42.7963 63.1069L42.8377 63.0448Z" fill="#10AFAB"/>
</svg>
