<svg width="48" height="48" viewBox="0 0 48 48" fill="none" xmlns="http://www.w3.org/2000/svg">
<path d="M27.3875 25.9185C26.8421 25.9185 26.3999 25.4762 26.3999 24.9308V20.4172H21.5999V24.9308C21.5999 25.4762 21.1576 25.9185 20.6122 25.9185H16.0986V30.7086H20.6122C21.1576 30.7086 21.5999 31.1508 21.5999 31.6963V36.2098H26.39V31.6963C26.39 31.1508 26.8322 30.7086 27.3776 30.7086H31.9011V25.9185H27.3875Z" fill="#1464FF"/>
<path d="M41.1852 11.0444H6.81482C3.67407 11.0444 0 12.8321 0 17.8592V39.321C0 44.3481 3.67407 46.1358 6.81482 46.1358H41.1852C44.3259 46.1358 48 44.3481 48 39.321V17.8592C48 12.8321 44.3358 11.0444 41.1852 11.0444ZM33.8765 31.2123C33.8765 32.0251 33.2177 32.6839 32.4049 32.6839H28.3753V36.7136C28.3753 37.5263 27.7164 38.1852 26.9037 38.1852H21.0963C20.2836 38.1852 19.6247 37.5263 19.6247 36.7136V32.6839H15.6049C14.7922 32.6894 14.1289 32.0349 14.1235 31.2222C14.1235 31.2189 14.1235 31.2155 14.1235 31.2123V25.4148C14.1235 24.6021 14.7823 23.9432 15.5951 23.9432H19.6247V19.9136C19.6247 19.1009 20.2836 18.442 21.0963 18.442H26.8938C27.7065 18.442 28.3654 19.1009 28.3654 19.9136V23.9432H32.3951C33.2078 23.9378 33.8711 24.5922 33.8765 25.4049C33.8765 25.4083 33.8765 25.4115 33.8765 25.4148V31.2123Z" fill="#1464FF"/>
<path d="M30.3499 1.86894C30.2416 1.86277 30.133 1.86277 30.0246 1.86894H17.9752C16.3904 1.77919 15.0329 2.99104 14.9431 4.57573C14.9369 4.68412 14.9369 4.79264 14.9431 4.90104V9.34548H16.9184L16.9283 4.90104C16.9283 4.61462 16.9283 3.84425 17.9851 3.84425H30.0246C31.0814 3.84425 31.0814 4.60474 31.0814 4.90104V9.34548H33.0567V4.90104C33.1466 3.31622 31.9346 1.95881 30.3499 1.86894Z" fill="#1464FF"/>
</svg>
