<svg width="86" height="28" viewBox="0 0 86 28" fill="none" xmlns="http://www.w3.org/2000/svg">
<path d="M7.54631 3.08508H5.8256V1.36655C5.8256 0.600456 5.20365 0 4.4573 0C3.69023 0 3.089 0.621161 3.089 1.36655V3.08508H1.3683C0.601227 3.08508 0 3.70624 0 4.45162C0 5.21771 0.621959 5.81814 1.3683 5.81814H3.089V7.53667C3.089 8.30276 3.71096 8.90321 4.4573 8.90321C5.22438 8.90321 5.8256 8.28205 5.8256 7.53667V5.81814H7.54631C8.31338 5.81814 8.91461 5.19701 8.91461 4.45162C8.91461 3.68553 8.29265 3.08508 7.54631 3.08508Z" fill="#10AFAB"/>
<path d="M26.7646 3.08508H25.0439V1.36655C25.0439 0.600456 24.4219 0 23.6756 0C22.9085 0 22.3073 0.621161 22.3073 1.36655V3.08508H20.5866C19.8195 3.08508 19.2183 3.70624 19.2183 4.45162C19.2183 5.21771 19.8402 5.81814 20.5866 5.81814H22.3073V7.53667C22.3073 8.30276 22.9292 8.90321 23.6756 8.90321C24.4426 8.90321 25.0439 8.28205 25.0439 7.53667V5.81814H26.7646C27.5317 5.81814 28.1329 5.19701 28.1329 4.45162C28.1329 3.68553 27.511 3.08508 26.7646 3.08508Z" fill="#10AFAB"/>
<path d="M45.9829 3.08508H44.2621V1.36655C44.2621 0.600456 43.6402 0 42.8939 0C42.1268 0 41.5256 0.621161 41.5256 1.36655V3.08508H39.8048C39.0378 3.08508 38.4365 3.70624 38.4365 4.45162C38.4365 5.21771 39.0585 5.81814 39.8048 5.81814H41.5256V7.53667C41.5256 8.30276 42.1475 8.90321 42.8939 8.90321C43.661 8.90321 44.2621 8.28205 44.2621 7.53667V5.81814H45.9829C46.75 5.81814 47.3512 5.19701 47.3512 4.45162C47.3512 3.68553 46.7292 3.08508 45.9829 3.08508Z" fill="#10AFAB"/>
<path d="M65.2222 3.08508H63.5014V1.36655C63.5014 0.600456 62.8795 0 62.1331 0C61.3661 0 60.7648 0.621161 60.7648 1.36655V3.08508H59.0441C58.277 3.08508 57.6758 3.70624 57.6758 4.45162C57.6758 5.21771 58.2977 5.81814 59.0441 5.81814H60.7648V7.53667C60.7648 8.30276 61.3868 8.90321 62.1331 8.90321C62.9002 8.90321 63.5014 8.28205 63.5014 7.53667V5.81814H65.2222C65.9892 5.81814 66.5905 5.19701 66.5905 4.45162C66.5905 3.68553 65.9685 3.08508 65.2222 3.08508Z" fill="#10AFAB"/>
<path d="M84.4404 3.08508H82.7196V1.36655C82.7196 0.600456 82.0977 0 81.3513 0C80.5843 0 79.983 0.621161 79.983 1.36655V3.08508H78.2623C77.4953 3.08508 76.894 3.70624 76.894 4.45162C76.894 5.21771 77.516 5.81814 78.2623 5.81814H79.983V7.53667C79.983 8.30276 80.605 8.90321 81.3513 8.90321C82.1184 8.90321 82.7196 8.28205 82.7196 7.53667V5.81814H84.4404C85.2074 5.81814 85.8087 5.19701 85.8087 4.45162C85.8087 3.68553 85.1867 3.08508 84.4404 3.08508Z" fill="#10AFAB"/>
<path d="M7.54631 21.9889H5.8256V20.2704C5.8256 19.5043 5.20365 18.9038 4.4573 18.9038C3.69023 18.9038 3.089 19.525 3.089 20.2704V21.9889H1.3683C0.601227 21.9889 0 22.61 0 23.3554C0 24.1215 0.621959 24.7219 1.3683 24.7219H3.089V26.4405C3.089 27.2066 3.71096 27.807 4.4573 27.807C5.22438 27.807 5.8256 27.1859 5.8256 26.4405V24.7219H7.54631C8.31338 24.7219 8.91461 24.1008 8.91461 23.3554C8.91461 22.5893 8.29265 21.9889 7.54631 21.9889Z" fill="#10AFAB"/>
<path d="M26.7646 21.9889H25.0439V20.2704C25.0439 19.5043 24.4219 18.9038 23.6756 18.9038C22.9085 18.9038 22.3073 19.525 22.3073 20.2704V21.9889H20.5866C19.8195 21.9889 19.2183 22.61 19.2183 23.3554C19.2183 24.1215 19.8402 24.7219 20.5866 24.7219H22.3073V26.4405C22.3073 27.2066 22.9292 27.807 23.6756 27.807C24.4426 27.807 25.0439 27.1859 25.0439 26.4405V24.7219H26.7646C27.5317 24.7219 28.1329 24.1008 28.1329 23.3554C28.1329 22.5893 27.511 21.9889 26.7646 21.9889Z" fill="#10AFAB"/>
<path d="M45.9829 21.9889H44.2621V20.2704C44.2621 19.5043 43.6402 18.9038 42.8939 18.9038C42.1268 18.9038 41.5256 19.525 41.5256 20.2704V21.9889H39.8048C39.0378 21.9889 38.4365 22.61 38.4365 23.3554C38.4365 24.1215 39.0585 24.7219 39.8048 24.7219H41.5256V26.4405C41.5256 27.2066 42.1475 27.807 42.8939 27.807C43.661 27.807 44.2621 27.1859 44.2621 26.4405V24.7219H45.9829C46.75 24.7219 47.3512 24.1008 47.3512 23.3554C47.3512 22.5893 46.7292 21.9889 45.9829 21.9889Z" fill="#10AFAB"/>
<path d="M65.2222 21.9889H63.5014V20.2704C63.5014 19.5043 62.8795 18.9038 62.1331 18.9038C61.3661 18.9038 60.7648 19.525 60.7648 20.2704V21.9889H59.0441C58.277 21.9889 57.6758 22.61 57.6758 23.3554C57.6758 24.1215 58.2977 24.7219 59.0441 24.7219H60.7648V26.4405C60.7648 27.2066 61.3868 27.807 62.1331 27.807C62.9002 27.807 63.5014 27.1859 63.5014 26.4405V24.7219H65.2222C65.9892 24.7219 66.5905 24.1008 66.5905 23.3554C66.5905 22.5893 65.9685 21.9889 65.2222 21.9889Z" fill="#10AFAB"/>
<path d="M84.4404 21.9889H82.7196V20.2704C82.7196 19.5043 82.0977 18.9038 81.3513 18.9038C80.5843 18.9038 79.983 19.525 79.983 20.2704V21.9889H78.2623C77.4953 21.9889 76.894 22.61 76.894 23.3554C76.894 24.1215 77.516 24.7219 78.2623 24.7219H79.983V26.4405C79.983 27.2066 80.605 27.807 81.3513 27.807C82.1184 27.807 82.7196 27.1859 82.7196 26.4405V24.7219H84.4404C85.2074 24.7219 85.8087 24.1008 85.8087 23.3554C85.8087 22.5893 85.1867 21.9889 84.4404 21.9889Z" fill="#10AFAB"/>
</svg>
